TITLE ""
FILE "DISC2Track03.mp3" MP3
  TRACK 01 AUDIO
    TITLE "DISC2Track03_01"
    INDEX 01 00:00:00
  TRACK 02 AUDIO
    TITLE "DISC2Track03_02"
    INDEX 01 00:03:67
  TRACK 03 AUDIO
    TITLE "DISC2Track03_03"
    INDEX 01 00:04:14
  TRACK 04 AUDIO
    TITLE "DISC2Track03_04"
    INDEX 01 00:08:45
  TRACK 05 AUDIO
    TITLE "DISC2Track03_05"
    INDEX 01 00:12:10
  TRACK 06 AUDIO
    TITLE "DISC2Track03_06"
    INDEX 01 00:15:43
  TRACK 07 AUDIO
    TITLE "DISC2Track03_07"
    INDEX 01 00:15:67
  TRACK 08 AUDIO
    TITLE "DISC2Track03_08"
    INDEX 01 00:19:51
  TRACK 09 AUDIO
    TITLE "DISC2Track03_09"
    INDEX 01 00:23:62
  TRACK 10 AUDIO
    TITLE "DISC2Track03_10"
    INDEX 01 00:27:66
  TRACK 11 AUDIO
    TITLE "DISC2Track03_11"
    INDEX 01 00:28:14
  TRACK 12 AUDIO
    TITLE "DISC2Track03_12"
    INDEX 01 00:32:48
  TRACK 13 AUDIO
    TITLE "DISC2Track03_13"
    INDEX 01 00:36:08
  TRACK 14 AUDIO
    TITLE "DISC2Track03_14"
    INDEX 01 00:39:38
  TRACK 15 AUDIO
    TITLE "DISC2Track03_15"
    INDEX 01 00:39:61
  TRACK 16 AUDIO
    TITLE "DISC2Track03_16"
    INDEX 01 00:41:29
  TRACK 17 AUDIO
    TITLE "DISC2Track03_17"
    INDEX 01 00:43:22
  TRACK 18 AUDIO
    TITLE "DISC2Track03_18"
    INDEX 01 00:45:05
  TRACK 19 AUDIO
    TITLE "DISC2Track03_19"
    INDEX 01 00:45:29
  TRACK 20 AUDIO
    TITLE "DISC2Track03_20"
    INDEX 01 00:49:15
  TRACK 21 AUDIO
    TITLE "DISC2Track03_21"
    INDEX 01 00:53:16
  TRACK 22 AUDIO
    TITLE "DISC2Track03_22"
    INDEX 01 00:57:12
  TRACK 23 AUDIO
    TITLE "DISC2Track03_23"
    INDEX 01 00:57:38
  TRACK 24 AUDIO
    TITLE "DISC2Track03_24"
    INDEX 01 01:01:16
  TRACK 25 AUDIO
    TITLE "DISC2Track03_25"
    INDEX 01 01:05:12
  TRACK 26 AUDIO
    TITLE "DISC2Track03_26"
    INDEX 01 01:09:02
  TRACK 27 AUDIO
    TITLE "DISC2Track03_27"
    INDEX 01 01:09:27
  TRACK 28 AUDIO
    TITLE "DISC2Track03_28"
    INDEX 01 01:14:05
  TRACK 29 AUDIO
    TITLE "DISC2Track03_29"
    INDEX 01 01:19:06
  TRACK 30 AUDIO
    TITLE "DISC2Track03_30"
    INDEX 01 01:23:72
  TRACK 31 AUDIO
    TITLE "DISC2Track03_31"
    INDEX 01 01:24:25
  TRACK 32 AUDIO
    TITLE "DISC2Track03_32"
    INDEX 01 01:29:30
  TRACK 33 AUDIO
    TITLE "DISC2Track03_33"
    INDEX 01 01:33:57
  TRACK 34 AUDIO
    TITLE "DISC2Track03_34"
    INDEX 01 01:38:03
  TRACK 35 AUDIO
    TITLE "DISC2Track03_35"
    INDEX 01 01:38:27
  TRACK 36 AUDIO
    TITLE "DISC2Track03_36"
    INDEX 01 01:42:15
  TRACK 37 AUDIO
    TITLE "DISC2Track03_37"
    INDEX 01 01:45:64
  TRACK 38 AUDIO
    TITLE "DISC2Track03_38"
    INDEX 01 01:49:33
  TRACK 39 AUDIO
    TITLE "DISC2Track03_39"
    INDEX 01 01:49:56
  TRACK 40 AUDIO
    TITLE "DISC2Track03_40"
    INDEX 01 01:51:55
  TRACK 41 AUDIO
    TITLE "DISC2Track03_41"
    INDEX 01 01:53:54
  TRACK 42 AUDIO
    TITLE "DISC2Track03_42"
    INDEX 01 01:55:41
  TRACK 43 AUDIO
    TITLE "DISC2Track03_43"
    INDEX 01 01:55:74
  TRACK 44 AUDIO
    TITLE "DISC2Track03_44"
    INDEX 01 02:00:17
  TRACK 45 AUDIO
    TITLE "DISC2Track03_45"
    INDEX 01 02:03:39
  TRACK 46 AUDIO
    TITLE "DISC2Track03_46"
    INDEX 01 02:06:53
  TRACK 47 AUDIO
    TITLE "DISC2Track03_47"
    INDEX 01 02:06:74
  TRACK 48 AUDIO
    TITLE "DISC2Track03_48"
    INDEX 01 02:11:22
  TRACK 49 AUDIO
    TITLE "DISC2Track03_49"
    INDEX 01 02:15:03
  TRACK 50 AUDIO
    TITLE "DISC2Track03_50"
    INDEX 01 02:18:54
